; NON-PLATED HOLES START AT T1
; THROUGH (PLATED) HOLES START AT T100
M48
INCH
T100C0.015748
T101C0.030000
T102C0.038972
T103C0.040278
T104C0.039000
T105C0.094488
%
T100
X027480Y013275
X026280Y013275
X026280Y010875
X030840Y009195
X032280Y011355
T101
X033016Y019277
X032016Y019277
X031016Y019277
T102
X034016Y010276
X034016Y011276
X034016Y008276
X034016Y007276
T103
X018616Y001277
X017616Y001277
X025616Y001277
X016616Y001277
X019616Y001277
X013616Y001277
X015616Y001277
X022616Y020277
X012016Y020277
X018016Y020277
X021616Y020277
X023616Y001277
X021616Y001277
X014616Y001277
X010016Y020277
X017016Y020277
X025616Y020277
X020616Y020277
X023616Y020277
X009016Y020277
X015016Y020277
X026616Y020277
X024616Y001277
X012616Y001277
X024616Y020277
X019616Y020277
X011016Y020277
X016016Y020277
X013016Y020277
X026616Y001277
X022616Y001277
X014016Y020277
T104
X034016Y009276
X034016Y010277
X034016Y013277
X034016Y012277
T105
X032016Y014277
X030016Y014277
T00
M30
