G04 MADE WITH FRITZING*
G04 WWW.FRITZING.ORG*
G04 DOUBLE SIDED*
G04 HOLES PLATED*
G04 CONTOUR ON CENTER OF CONTOUR VECTOR*
%ASAXBY*%
%FSLAX23Y23*%
%MOIN*%
%OFA0B0*%
%SFA1.0B1.0*%
%ADD10C,0.071000*%
%ADD11C,0.070972*%
%ADD12C,0.065278*%
%ADD13C,0.070000*%
%ADD14C,0.145669*%
%ADD15C,0.039370*%
%ADD16C,0.024000*%
%ADD17R,0.001000X0.001000*%
%LNCOPPER0*%
G90*
G70*
G54D10*
X3402Y1328D03*
X3402Y1228D03*
G54D11*
X3402Y1128D03*
X3402Y1028D03*
G54D10*
X3402Y1028D03*
X3402Y928D03*
G54D11*
X3402Y828D03*
X3402Y728D03*
G54D12*
X2262Y128D03*
X2362Y128D03*
X2462Y128D03*
X2562Y128D03*
X2662Y128D03*
X1802Y2028D03*
X1702Y2028D03*
X1602Y2028D03*
X1502Y2028D03*
X1402Y2028D03*
X1302Y2028D03*
X1202Y2028D03*
X1102Y2028D03*
X1002Y2028D03*
X902Y2028D03*
X2662Y2028D03*
X2562Y2028D03*
X2462Y2028D03*
X2362Y2028D03*
X2262Y2028D03*
X2162Y2028D03*
X2062Y2028D03*
X1962Y2028D03*
X1362Y128D03*
X1262Y128D03*
X1462Y128D03*
X1562Y128D03*
X1662Y128D03*
X1762Y128D03*
X1862Y128D03*
X1962Y128D03*
X2162Y128D03*
G54D13*
X3102Y1928D03*
X3202Y1928D03*
X3302Y1928D03*
G54D14*
X3202Y1428D03*
X3002Y1428D03*
G54D15*
X3228Y1136D03*
X2748Y1328D03*
X2628Y1328D03*
X2628Y1088D03*
X3084Y920D03*
G54D16*
X3402Y1058D02*
X3402Y1297D01*
D02*
X3402Y758D02*
X3402Y997D01*
D02*
X1862Y728D02*
X1862Y728D01*
D02*
X1862Y728D02*
X1862Y159D01*
D02*
X3371Y728D02*
X1862Y728D01*
D02*
X3032Y328D02*
X3003Y1369D01*
D02*
X3298Y1124D02*
X3302Y1902D01*
D02*
X3379Y1049D02*
X3298Y1124D01*
D02*
X1657Y1028D02*
X1661Y159D01*
D02*
X3371Y1028D02*
X1657Y1028D01*
D02*
X3388Y1355D02*
X3113Y1904D01*
D02*
X3188Y1950D02*
X3156Y2000D01*
X3156Y2000D02*
X3060Y2000D01*
X3060Y2000D02*
X3060Y1976D01*
X3060Y1976D02*
X2268Y1976D01*
X2268Y1976D02*
X2265Y1997D01*
D02*
X3218Y1152D02*
X3108Y1328D01*
X3108Y1328D02*
X3108Y1544D01*
X3108Y1544D02*
X2892Y1544D01*
X2892Y1544D02*
X2759Y1343D01*
D02*
X2628Y1309D02*
X2628Y1107D01*
D02*
X3102Y915D02*
X3360Y848D01*
X3360Y848D02*
X3372Y848D01*
X3372Y848D02*
X3376Y845D01*
G54D17*
X3095Y1963D02*
X3107Y1963D01*
X3195Y1963D02*
X3207Y1963D01*
X3295Y1963D02*
X3307Y1963D01*
X3091Y1962D02*
X3111Y1962D01*
X3191Y1962D02*
X3211Y1962D01*
X3291Y1962D02*
X3311Y1962D01*
X3088Y1961D02*
X3114Y1961D01*
X3188Y1961D02*
X3214Y1961D01*
X3288Y1961D02*
X3314Y1961D01*
X3086Y1960D02*
X3116Y1960D01*
X3186Y1960D02*
X3216Y1960D01*
X3286Y1960D02*
X3316Y1960D01*
X3084Y1959D02*
X3118Y1959D01*
X3184Y1959D02*
X3218Y1959D01*
X3284Y1959D02*
X3318Y1959D01*
X3083Y1958D02*
X3120Y1958D01*
X3183Y1958D02*
X3220Y1958D01*
X3283Y1958D02*
X3320Y1958D01*
X3081Y1957D02*
X3121Y1957D01*
X3181Y1957D02*
X3221Y1957D01*
X3281Y1957D02*
X3321Y1957D01*
X3080Y1956D02*
X3122Y1956D01*
X3180Y1956D02*
X3222Y1956D01*
X3280Y1956D02*
X3322Y1956D01*
X3078Y1955D02*
X3124Y1955D01*
X3178Y1955D02*
X3224Y1955D01*
X3278Y1955D02*
X3324Y1955D01*
X3077Y1954D02*
X3125Y1954D01*
X3177Y1954D02*
X3225Y1954D01*
X3277Y1954D02*
X3325Y1954D01*
X3076Y1953D02*
X3126Y1953D01*
X3176Y1953D02*
X3226Y1953D01*
X3276Y1953D02*
X3326Y1953D01*
X3075Y1952D02*
X3127Y1952D01*
X3175Y1952D02*
X3227Y1952D01*
X3275Y1952D02*
X3327Y1952D01*
X3075Y1951D02*
X3128Y1951D01*
X3175Y1951D02*
X3228Y1951D01*
X3275Y1951D02*
X3328Y1951D01*
X3074Y1950D02*
X3128Y1950D01*
X3174Y1950D02*
X3228Y1950D01*
X3274Y1950D02*
X3328Y1950D01*
X3073Y1949D02*
X3129Y1949D01*
X3173Y1949D02*
X3229Y1949D01*
X3273Y1949D02*
X3329Y1949D01*
X3072Y1948D02*
X3130Y1948D01*
X3172Y1948D02*
X3230Y1948D01*
X3272Y1948D02*
X3330Y1948D01*
X3072Y1947D02*
X3130Y1947D01*
X3172Y1947D02*
X3230Y1947D01*
X3272Y1947D02*
X3330Y1947D01*
X3071Y1946D02*
X3131Y1946D01*
X3171Y1946D02*
X3231Y1946D01*
X3271Y1946D02*
X3331Y1946D01*
X3071Y1945D02*
X3131Y1945D01*
X3171Y1945D02*
X3231Y1945D01*
X3271Y1945D02*
X3331Y1945D01*
X3070Y1944D02*
X3132Y1944D01*
X3170Y1944D02*
X3232Y1944D01*
X3270Y1944D02*
X3332Y1944D01*
X3070Y1943D02*
X3096Y1943D01*
X3107Y1943D02*
X3132Y1943D01*
X3170Y1943D02*
X3196Y1943D01*
X3207Y1943D02*
X3232Y1943D01*
X3270Y1943D02*
X3296Y1943D01*
X3307Y1943D02*
X3332Y1943D01*
X3069Y1942D02*
X3093Y1942D01*
X3109Y1942D02*
X3133Y1942D01*
X3169Y1942D02*
X3193Y1942D01*
X3209Y1942D02*
X3233Y1942D01*
X3269Y1942D02*
X3293Y1942D01*
X3309Y1942D02*
X3333Y1942D01*
X3069Y1941D02*
X3092Y1941D01*
X3110Y1941D02*
X3133Y1941D01*
X3169Y1941D02*
X3192Y1941D01*
X3210Y1941D02*
X3233Y1941D01*
X3269Y1941D02*
X3292Y1941D01*
X3310Y1941D02*
X3333Y1941D01*
X3069Y1940D02*
X3091Y1940D01*
X3111Y1940D02*
X3134Y1940D01*
X3169Y1940D02*
X3191Y1940D01*
X3211Y1940D02*
X3233Y1940D01*
X3269Y1940D02*
X3291Y1940D01*
X3311Y1940D02*
X3333Y1940D01*
X3068Y1939D02*
X3090Y1939D01*
X3112Y1939D02*
X3134Y1939D01*
X3168Y1939D02*
X3190Y1939D01*
X3212Y1939D02*
X3234Y1939D01*
X3268Y1939D02*
X3290Y1939D01*
X3312Y1939D02*
X3334Y1939D01*
X3068Y1938D02*
X3089Y1938D01*
X3113Y1938D02*
X3134Y1938D01*
X3168Y1938D02*
X3189Y1938D01*
X3213Y1938D02*
X3234Y1938D01*
X3268Y1938D02*
X3289Y1938D01*
X3313Y1938D02*
X3334Y1938D01*
X3068Y1937D02*
X3088Y1937D01*
X3114Y1937D02*
X3134Y1937D01*
X3168Y1937D02*
X3188Y1937D01*
X3214Y1937D02*
X3234Y1937D01*
X3268Y1937D02*
X3288Y1937D01*
X3314Y1937D02*
X3334Y1937D01*
X3067Y1936D02*
X3087Y1936D01*
X3115Y1936D02*
X3135Y1936D01*
X3167Y1936D02*
X3187Y1936D01*
X3215Y1936D02*
X3235Y1936D01*
X3267Y1936D02*
X3287Y1936D01*
X3315Y1936D02*
X3335Y1936D01*
X3067Y1935D02*
X3087Y1935D01*
X3115Y1935D02*
X3135Y1935D01*
X3167Y1935D02*
X3187Y1935D01*
X3215Y1935D02*
X3235Y1935D01*
X3267Y1935D02*
X3287Y1935D01*
X3315Y1935D02*
X3335Y1935D01*
X3067Y1934D02*
X3086Y1934D01*
X3116Y1934D02*
X3135Y1934D01*
X3167Y1934D02*
X3186Y1934D01*
X3216Y1934D02*
X3235Y1934D01*
X3267Y1934D02*
X3286Y1934D01*
X3316Y1934D02*
X3335Y1934D01*
X3067Y1933D02*
X3086Y1933D01*
X3116Y1933D02*
X3135Y1933D01*
X3167Y1933D02*
X3186Y1933D01*
X3216Y1933D02*
X3235Y1933D01*
X3267Y1933D02*
X3286Y1933D01*
X3316Y1933D02*
X3335Y1933D01*
X3067Y1932D02*
X3086Y1932D01*
X3116Y1932D02*
X3135Y1932D01*
X3167Y1932D02*
X3186Y1932D01*
X3216Y1932D02*
X3235Y1932D01*
X3267Y1932D02*
X3286Y1932D01*
X3316Y1932D02*
X3335Y1932D01*
X3067Y1931D02*
X3086Y1931D01*
X3116Y1931D02*
X3135Y1931D01*
X3167Y1931D02*
X3186Y1931D01*
X3216Y1931D02*
X3235Y1931D01*
X3267Y1931D02*
X3286Y1931D01*
X3316Y1931D02*
X3335Y1931D01*
X3067Y1930D02*
X3086Y1930D01*
X3116Y1930D02*
X3136Y1930D01*
X3167Y1930D02*
X3186Y1930D01*
X3216Y1930D02*
X3236Y1930D01*
X3267Y1930D02*
X3286Y1930D01*
X3316Y1930D02*
X3336Y1930D01*
X3067Y1929D02*
X3086Y1929D01*
X3117Y1929D02*
X3136Y1929D01*
X3167Y1929D02*
X3186Y1929D01*
X3217Y1929D02*
X3236Y1929D01*
X3267Y1929D02*
X3286Y1929D01*
X3317Y1929D02*
X3336Y1929D01*
X3067Y1928D02*
X3086Y1928D01*
X3117Y1928D02*
X3136Y1928D01*
X3167Y1928D02*
X3186Y1928D01*
X3217Y1928D02*
X3236Y1928D01*
X3267Y1928D02*
X3286Y1928D01*
X3317Y1928D02*
X3336Y1928D01*
X3067Y1927D02*
X3086Y1927D01*
X3116Y1927D02*
X3135Y1927D01*
X3167Y1927D02*
X3186Y1927D01*
X3216Y1927D02*
X3235Y1927D01*
X3267Y1927D02*
X3286Y1927D01*
X3316Y1927D02*
X3335Y1927D01*
X3067Y1926D02*
X3086Y1926D01*
X3116Y1926D02*
X3135Y1926D01*
X3167Y1926D02*
X3186Y1926D01*
X3216Y1926D02*
X3235Y1926D01*
X3267Y1926D02*
X3286Y1926D01*
X3316Y1926D02*
X3335Y1926D01*
X3067Y1925D02*
X3086Y1925D01*
X3116Y1925D02*
X3135Y1925D01*
X3167Y1925D02*
X3186Y1925D01*
X3216Y1925D02*
X3235Y1925D01*
X3267Y1925D02*
X3286Y1925D01*
X3316Y1925D02*
X3335Y1925D01*
X3067Y1924D02*
X3086Y1924D01*
X3116Y1924D02*
X3135Y1924D01*
X3167Y1924D02*
X3186Y1924D01*
X3216Y1924D02*
X3235Y1924D01*
X3267Y1924D02*
X3286Y1924D01*
X3316Y1924D02*
X3335Y1924D01*
X3067Y1923D02*
X3087Y1923D01*
X3116Y1923D02*
X3135Y1923D01*
X3167Y1923D02*
X3187Y1923D01*
X3216Y1923D02*
X3235Y1923D01*
X3267Y1923D02*
X3287Y1923D01*
X3316Y1923D02*
X3335Y1923D01*
X3067Y1922D02*
X3087Y1922D01*
X3115Y1922D02*
X3135Y1922D01*
X3167Y1922D02*
X3187Y1922D01*
X3215Y1922D02*
X3235Y1922D01*
X3267Y1922D02*
X3287Y1922D01*
X3315Y1922D02*
X3335Y1922D01*
X3068Y1921D02*
X3088Y1921D01*
X3115Y1921D02*
X3135Y1921D01*
X3168Y1921D02*
X3188Y1921D01*
X3215Y1921D02*
X3235Y1921D01*
X3268Y1921D02*
X3288Y1921D01*
X3315Y1921D02*
X3335Y1921D01*
X3068Y1920D02*
X3088Y1920D01*
X3114Y1920D02*
X3134Y1920D01*
X3168Y1920D02*
X3188Y1920D01*
X3214Y1920D02*
X3234Y1920D01*
X3268Y1920D02*
X3288Y1920D01*
X3314Y1920D02*
X3334Y1920D01*
X3068Y1919D02*
X3089Y1919D01*
X3113Y1919D02*
X3134Y1919D01*
X3168Y1919D02*
X3189Y1919D01*
X3213Y1919D02*
X3234Y1919D01*
X3268Y1919D02*
X3289Y1919D01*
X3313Y1919D02*
X3334Y1919D01*
X3068Y1918D02*
X3090Y1918D01*
X3112Y1918D02*
X3134Y1918D01*
X3168Y1918D02*
X3190Y1918D01*
X3212Y1918D02*
X3234Y1918D01*
X3268Y1918D02*
X3290Y1918D01*
X3312Y1918D02*
X3334Y1918D01*
X3069Y1917D02*
X3091Y1917D01*
X3111Y1917D02*
X3133Y1917D01*
X3169Y1917D02*
X3191Y1917D01*
X3211Y1917D02*
X3233Y1917D01*
X3269Y1917D02*
X3291Y1917D01*
X3311Y1917D02*
X3333Y1917D01*
X3069Y1916D02*
X3093Y1916D01*
X3110Y1916D02*
X3133Y1916D01*
X3169Y1916D02*
X3193Y1916D01*
X3210Y1916D02*
X3233Y1916D01*
X3269Y1916D02*
X3293Y1916D01*
X3310Y1916D02*
X3333Y1916D01*
X3070Y1915D02*
X3094Y1915D01*
X3108Y1915D02*
X3133Y1915D01*
X3170Y1915D02*
X3194Y1915D01*
X3208Y1915D02*
X3233Y1915D01*
X3270Y1915D02*
X3294Y1915D01*
X3308Y1915D02*
X3333Y1915D01*
X3070Y1914D02*
X3098Y1914D01*
X3105Y1914D02*
X3132Y1914D01*
X3170Y1914D02*
X3198Y1914D01*
X3205Y1914D02*
X3232Y1914D01*
X3270Y1914D02*
X3298Y1914D01*
X3305Y1914D02*
X3332Y1914D01*
X3071Y1913D02*
X3132Y1913D01*
X3171Y1913D02*
X3232Y1913D01*
X3271Y1913D02*
X3332Y1913D01*
X3071Y1912D02*
X3131Y1912D01*
X3171Y1912D02*
X3231Y1912D01*
X3271Y1912D02*
X3331Y1912D01*
X3072Y1911D02*
X3131Y1911D01*
X3172Y1911D02*
X3231Y1911D01*
X3272Y1911D02*
X3331Y1911D01*
X3072Y1910D02*
X3130Y1910D01*
X3172Y1910D02*
X3230Y1910D01*
X3272Y1910D02*
X3330Y1910D01*
X3073Y1909D02*
X3129Y1909D01*
X3173Y1909D02*
X3229Y1909D01*
X3273Y1909D02*
X3329Y1909D01*
X3074Y1908D02*
X3129Y1908D01*
X3174Y1908D02*
X3229Y1908D01*
X3274Y1908D02*
X3329Y1908D01*
X3074Y1907D02*
X3128Y1907D01*
X3174Y1907D02*
X3228Y1907D01*
X3274Y1907D02*
X3328Y1907D01*
X3075Y1906D02*
X3127Y1906D01*
X3175Y1906D02*
X3227Y1906D01*
X3275Y1906D02*
X3327Y1906D01*
X3076Y1905D02*
X3126Y1905D01*
X3176Y1905D02*
X3226Y1905D01*
X3276Y1905D02*
X3326Y1905D01*
X3077Y1904D02*
X3125Y1904D01*
X3177Y1904D02*
X3225Y1904D01*
X3277Y1904D02*
X3325Y1904D01*
X3078Y1903D02*
X3124Y1903D01*
X3178Y1903D02*
X3224Y1903D01*
X3278Y1903D02*
X3324Y1903D01*
X3079Y1902D02*
X3123Y1902D01*
X3179Y1902D02*
X3223Y1902D01*
X3279Y1902D02*
X3323Y1902D01*
X3080Y1901D02*
X3122Y1901D01*
X3180Y1901D02*
X3222Y1901D01*
X3280Y1901D02*
X3322Y1901D01*
X3082Y1900D02*
X3120Y1900D01*
X3182Y1900D02*
X3220Y1900D01*
X3282Y1900D02*
X3320Y1900D01*
X3083Y1899D02*
X3119Y1899D01*
X3183Y1899D02*
X3219Y1899D01*
X3283Y1899D02*
X3319Y1899D01*
X3085Y1898D02*
X3117Y1898D01*
X3185Y1898D02*
X3217Y1898D01*
X3285Y1898D02*
X3317Y1898D01*
X3087Y1897D02*
X3115Y1897D01*
X3187Y1897D02*
X3215Y1897D01*
X3287Y1897D02*
X3315Y1897D01*
X3090Y1896D02*
X3112Y1896D01*
X3190Y1896D02*
X3212Y1896D01*
X3290Y1896D02*
X3312Y1896D01*
X3093Y1895D02*
X3109Y1895D01*
X3193Y1895D02*
X3209Y1895D01*
X3293Y1895D02*
X3309Y1895D01*
X3098Y1894D02*
X3104Y1894D01*
X3198Y1894D02*
X3204Y1894D01*
X3298Y1894D02*
X3304Y1894D01*
X2929Y1501D02*
X3073Y1501D01*
X2929Y1500D02*
X3073Y1500D01*
X2929Y1499D02*
X3073Y1499D01*
X2929Y1498D02*
X3073Y1498D01*
X2929Y1497D02*
X3073Y1497D01*
X2929Y1496D02*
X3073Y1496D01*
X2929Y1495D02*
X3073Y1495D01*
X2929Y1494D02*
X3073Y1494D01*
X2929Y1493D02*
X3073Y1493D01*
X2929Y1492D02*
X3073Y1492D01*
X2929Y1491D02*
X3073Y1491D01*
X2929Y1490D02*
X3073Y1490D01*
X2929Y1489D02*
X3073Y1489D01*
X2929Y1488D02*
X3073Y1488D01*
X2929Y1487D02*
X3073Y1487D01*
X2929Y1486D02*
X3073Y1486D01*
X2929Y1485D02*
X3073Y1485D01*
X2929Y1484D02*
X3073Y1484D01*
X2929Y1483D02*
X3073Y1483D01*
X2929Y1482D02*
X3073Y1482D01*
X2929Y1481D02*
X3073Y1481D01*
X2929Y1480D02*
X3073Y1480D01*
X2929Y1479D02*
X3073Y1479D01*
X2929Y1478D02*
X3073Y1478D01*
X2929Y1477D02*
X3073Y1477D01*
X2929Y1476D02*
X2998Y1476D01*
X3004Y1476D02*
X3073Y1476D01*
X2929Y1475D02*
X2990Y1475D01*
X3012Y1475D02*
X3073Y1475D01*
X2929Y1474D02*
X2987Y1474D01*
X3016Y1474D02*
X3073Y1474D01*
X2929Y1473D02*
X2984Y1473D01*
X3018Y1473D02*
X3073Y1473D01*
X2929Y1472D02*
X2981Y1472D01*
X3021Y1472D02*
X3073Y1472D01*
X2929Y1471D02*
X2979Y1471D01*
X3023Y1471D02*
X3073Y1471D01*
X2929Y1470D02*
X2977Y1470D01*
X3025Y1470D02*
X3073Y1470D01*
X2929Y1469D02*
X2976Y1469D01*
X3026Y1469D02*
X3073Y1469D01*
X2929Y1468D02*
X2974Y1468D01*
X3028Y1468D02*
X3073Y1468D01*
X2929Y1467D02*
X2973Y1467D01*
X3029Y1467D02*
X3073Y1467D01*
X2929Y1466D02*
X2971Y1466D01*
X3031Y1466D02*
X3073Y1466D01*
X2929Y1465D02*
X2970Y1465D01*
X3032Y1465D02*
X3073Y1465D01*
X2929Y1464D02*
X2969Y1464D01*
X3033Y1464D02*
X3073Y1464D01*
X2929Y1463D02*
X2968Y1463D01*
X3034Y1463D02*
X3073Y1463D01*
X2929Y1462D02*
X2967Y1462D01*
X3035Y1462D02*
X3073Y1462D01*
X2929Y1461D02*
X2966Y1461D01*
X3036Y1461D02*
X3073Y1461D01*
X2929Y1460D02*
X2965Y1460D01*
X3037Y1460D02*
X3073Y1460D01*
X2929Y1459D02*
X2964Y1459D01*
X3038Y1459D02*
X3073Y1459D01*
X2929Y1458D02*
X2963Y1458D01*
X3039Y1458D02*
X3073Y1458D01*
X2929Y1457D02*
X2963Y1457D01*
X3039Y1457D02*
X3073Y1457D01*
X2929Y1456D02*
X2962Y1456D01*
X3040Y1456D02*
X3073Y1456D01*
X2929Y1455D02*
X2961Y1455D01*
X3041Y1455D02*
X3073Y1455D01*
X2929Y1454D02*
X2961Y1454D01*
X3042Y1454D02*
X3073Y1454D01*
X2929Y1453D02*
X2960Y1453D01*
X3042Y1453D02*
X3073Y1453D01*
X2929Y1452D02*
X2959Y1452D01*
X3043Y1452D02*
X3073Y1452D01*
X2929Y1451D02*
X2959Y1451D01*
X3043Y1451D02*
X3073Y1451D01*
X2929Y1450D02*
X2958Y1450D01*
X3044Y1450D02*
X3073Y1450D01*
X2929Y1449D02*
X2958Y1449D01*
X3044Y1449D02*
X3073Y1449D01*
X2929Y1448D02*
X2957Y1448D01*
X3045Y1448D02*
X3073Y1448D01*
X2929Y1447D02*
X2957Y1447D01*
X3045Y1447D02*
X3073Y1447D01*
X2929Y1446D02*
X2957Y1446D01*
X3046Y1446D02*
X3073Y1446D01*
X2929Y1445D02*
X2956Y1445D01*
X3046Y1445D02*
X3073Y1445D01*
X2929Y1444D02*
X2956Y1444D01*
X3046Y1444D02*
X3073Y1444D01*
X2929Y1443D02*
X2955Y1443D01*
X3047Y1443D02*
X3073Y1443D01*
X2929Y1442D02*
X2955Y1442D01*
X3047Y1442D02*
X3073Y1442D01*
X2929Y1441D02*
X2955Y1441D01*
X3047Y1441D02*
X3073Y1441D01*
X2929Y1440D02*
X2955Y1440D01*
X3047Y1440D02*
X3073Y1440D01*
X2929Y1439D02*
X2954Y1439D01*
X3048Y1439D02*
X3073Y1439D01*
X2929Y1438D02*
X2954Y1438D01*
X3048Y1438D02*
X3073Y1438D01*
X2929Y1437D02*
X2954Y1437D01*
X3048Y1437D02*
X3073Y1437D01*
X2929Y1436D02*
X2954Y1436D01*
X3048Y1436D02*
X3073Y1436D01*
X2929Y1435D02*
X2954Y1435D01*
X3048Y1435D02*
X3073Y1435D01*
X2929Y1434D02*
X2954Y1434D01*
X3049Y1434D02*
X3073Y1434D01*
X2929Y1433D02*
X2954Y1433D01*
X3049Y1433D02*
X3073Y1433D01*
X2929Y1432D02*
X2953Y1432D01*
X3049Y1432D02*
X3073Y1432D01*
X2929Y1431D02*
X2953Y1431D01*
X3049Y1431D02*
X3073Y1431D01*
X2929Y1430D02*
X2953Y1430D01*
X3049Y1430D02*
X3073Y1430D01*
X2929Y1429D02*
X2953Y1429D01*
X3049Y1429D02*
X3073Y1429D01*
X2929Y1428D02*
X2953Y1428D01*
X3049Y1428D02*
X3073Y1428D01*
X2929Y1427D02*
X2953Y1427D01*
X3049Y1427D02*
X3073Y1427D01*
X2929Y1426D02*
X2953Y1426D01*
X3049Y1426D02*
X3073Y1426D01*
X2929Y1425D02*
X2954Y1425D01*
X3049Y1425D02*
X3073Y1425D01*
X2929Y1424D02*
X2954Y1424D01*
X3049Y1424D02*
X3073Y1424D01*
X2929Y1423D02*
X2954Y1423D01*
X3048Y1423D02*
X3073Y1423D01*
X2929Y1422D02*
X2954Y1422D01*
X3048Y1422D02*
X3073Y1422D01*
X2929Y1421D02*
X2954Y1421D01*
X3048Y1421D02*
X3073Y1421D01*
X2929Y1420D02*
X2954Y1420D01*
X3048Y1420D02*
X3073Y1420D01*
X2929Y1419D02*
X2954Y1419D01*
X3048Y1419D02*
X3073Y1419D01*
X2929Y1418D02*
X2955Y1418D01*
X3048Y1418D02*
X3073Y1418D01*
X2929Y1417D02*
X2955Y1417D01*
X3047Y1417D02*
X3073Y1417D01*
X2929Y1416D02*
X2955Y1416D01*
X3047Y1416D02*
X3073Y1416D01*
X2929Y1415D02*
X2955Y1415D01*
X3047Y1415D02*
X3073Y1415D01*
X2929Y1414D02*
X2956Y1414D01*
X3046Y1414D02*
X3073Y1414D01*
X2929Y1413D02*
X2956Y1413D01*
X3046Y1413D02*
X3073Y1413D01*
X2929Y1412D02*
X2956Y1412D01*
X3046Y1412D02*
X3073Y1412D01*
X2929Y1411D02*
X2957Y1411D01*
X3045Y1411D02*
X3073Y1411D01*
X2929Y1410D02*
X2957Y1410D01*
X3045Y1410D02*
X3073Y1410D01*
X2929Y1409D02*
X2958Y1409D01*
X3044Y1409D02*
X3073Y1409D01*
X2929Y1408D02*
X2958Y1408D01*
X3044Y1408D02*
X3073Y1408D01*
X2929Y1407D02*
X2959Y1407D01*
X3043Y1407D02*
X3073Y1407D01*
X2929Y1406D02*
X2959Y1406D01*
X3043Y1406D02*
X3073Y1406D01*
X2929Y1405D02*
X2960Y1405D01*
X3042Y1405D02*
X3073Y1405D01*
X2929Y1404D02*
X2960Y1404D01*
X3042Y1404D02*
X3073Y1404D01*
X2929Y1403D02*
X2961Y1403D01*
X3041Y1403D02*
X3073Y1403D01*
X2929Y1402D02*
X2962Y1402D01*
X3040Y1402D02*
X3073Y1402D01*
X2929Y1401D02*
X2963Y1401D01*
X3040Y1401D02*
X3073Y1401D01*
X2929Y1400D02*
X2963Y1400D01*
X3039Y1400D02*
X3073Y1400D01*
X2929Y1399D02*
X2964Y1399D01*
X3038Y1399D02*
X3073Y1399D01*
X2929Y1398D02*
X2965Y1398D01*
X3037Y1398D02*
X3073Y1398D01*
X2929Y1397D02*
X2966Y1397D01*
X3036Y1397D02*
X3073Y1397D01*
X2929Y1396D02*
X2967Y1396D01*
X3035Y1396D02*
X3073Y1396D01*
X2929Y1395D02*
X2968Y1395D01*
X3034Y1395D02*
X3073Y1395D01*
X2929Y1394D02*
X2969Y1394D01*
X3033Y1394D02*
X3073Y1394D01*
X2929Y1393D02*
X2970Y1393D01*
X3032Y1393D02*
X3073Y1393D01*
X2929Y1392D02*
X2971Y1392D01*
X3031Y1392D02*
X3073Y1392D01*
X2929Y1391D02*
X2972Y1391D01*
X3030Y1391D02*
X3073Y1391D01*
X2929Y1390D02*
X2974Y1390D01*
X3028Y1390D02*
X3073Y1390D01*
X2929Y1389D02*
X2975Y1389D01*
X3027Y1389D02*
X3073Y1389D01*
X2929Y1388D02*
X2977Y1388D01*
X3025Y1388D02*
X3073Y1388D01*
X2929Y1387D02*
X2979Y1387D01*
X3023Y1387D02*
X3073Y1387D01*
X2929Y1386D02*
X2981Y1386D01*
X3021Y1386D02*
X3073Y1386D01*
X2929Y1385D02*
X2983Y1385D01*
X3019Y1385D02*
X3073Y1385D01*
X2929Y1384D02*
X2986Y1384D01*
X3016Y1384D02*
X3073Y1384D01*
X2929Y1383D02*
X2990Y1383D01*
X3013Y1383D02*
X3073Y1383D01*
X2929Y1382D02*
X2995Y1382D01*
X3007Y1382D02*
X3073Y1382D01*
X2929Y1381D02*
X3073Y1381D01*
X2929Y1380D02*
X3073Y1380D01*
X2929Y1379D02*
X3073Y1379D01*
X2929Y1378D02*
X3073Y1378D01*
X2929Y1377D02*
X3073Y1377D01*
X2929Y1376D02*
X3073Y1376D01*
X2929Y1375D02*
X3073Y1375D01*
X2929Y1374D02*
X3073Y1374D01*
X2929Y1373D02*
X3073Y1373D01*
X2929Y1372D02*
X3073Y1372D01*
X2929Y1371D02*
X3073Y1371D01*
X2929Y1370D02*
X3073Y1370D01*
X2929Y1369D02*
X3073Y1369D01*
X2929Y1368D02*
X3073Y1368D01*
X2929Y1367D02*
X3073Y1367D01*
X2929Y1366D02*
X3073Y1366D01*
X2929Y1365D02*
X3073Y1365D01*
X2929Y1364D02*
X3073Y1364D01*
X2929Y1363D02*
X3073Y1363D01*
X2929Y1362D02*
X3073Y1362D01*
X2929Y1361D02*
X3073Y1361D01*
X2929Y1360D02*
X3073Y1360D01*
X2929Y1359D02*
X3073Y1359D01*
X2929Y1358D02*
X3073Y1358D01*
X2929Y1357D02*
X3073Y1357D01*
D02*
G04 End of Copper0*
M02*